PathFileType	4	(X/Y/Z)	C:/Users/opensim2020/Desktop/walking_exp_matlab/subject06_walking12_straigt_04.trc																																																																																																																																														
DataRate	CameraRate	NumFrames	NumMarkers	Units	OrigDataRate	OrigDataStartFrame	OrigNumFrames																																																																																																																																										
100	100	8	48	mm	100	2788	181																																																																																																																																										
Frame#	Time	LFHD			RFHD			LBHD			RBHD			C7			T10			CLAV			STRN			RBAK			LSHO			LUPA			LELB			LFRM			LWRA			LWRB			LFIN			RSHO			RUPA			RELB			RFRM			RWRA			RWRB			RFIN			LASI			RASI			LPSI			RPSI			LTHI			LKNE			LTIB			LANK			LHEE			LTOE			RTHI			RKNE			RTIB			RANK			RHEE			RTOE			*39			*40			*41			*42			*43			*44			*45			*46			*47		
		X1	Y1	Z1	X2	Y2	Z2	X3	Y3	Z3	X4	Y4	Z4	X5	Y5	Z5	X6	Y6	Z6	X7	Y7	Z7	X8	Y8	Z8	X9	Y9	Z9	X10	Y10	Z10	X11	Y11	Z11	X12	Y12	Z12	X13	Y13	Z13	X14	Y14	Z14	X15	Y15	Z15	X16	Y16	Z16	X17	Y17	Z17	X18	Y18	Z18	X19	Y19	Z19	X20	Y20	Z20	X21	Y21	Z21	X22	Y22	Z22	X23	Y23	Z23	X24	Y24	Z24	X25	Y25	Z25	X26	Y26	Z26	X27	Y27	Z27	X28	Y28	Z28	X29	Y29	Z29	X30	Y30	Z30	X31	Y31	Z31	X32	Y32	Z32	X33	Y33	Z33	X34	Y34	Z34	X35	Y35	Z35	X36	Y36	Z36	X37	Y37	Z37	X38	Y38	Z38	X39	Y39	Z39	X40	Y40	Z40	X41	Y41	Z41	X42	Y42	Z42	X43	Y43	Z43	X44	Y44	Z44	X45	Y45	Z45	X46	Y46	Z46	X47	Y47	Z47	X48	Y48	Z48
																																																																																																																																																	
23	0.22	-890.64056	1649.49597	-1513.44434	-894.90009	1633.20557	-1382.677	-1022.42462	1591.35901	-1520.70142	-1025.18591	1581.13647	-1392.43359	-1023.56543	1434.25439	-1466.18262	-1062.1792	1105.86707	-1463.34216	-912.89972	1355.75464	-1466.67444	-876.44733	1179.64905	-1480.19116	-1098.33484	1263.4624	-1395.50952	-971.85986	1393.22266	-1626.00256	-926.47235	1205.88501	-1714.99646	-885.82086	1102.68677	-1739.67151	-775.06781	1000.7085	-1755.32996	-663.94861	950.02045	-1699.11682	-698.71497	909.44788	-1745.68237	-613.09326	881.24426	-1738.86511	-959.83588	1384.38501	-1304.52063	-1039.18384	1197.05481	-1223.74902	-1058.58618	1076.48071	-1213.30127	-1083.81299	959.03632	-1193.42822	-1075.01697	805.65094	-1216.94958	-1127.31152	827.67999	-1180.9303	-1121.16284	743.14032	-1175.82043	-893.47516	943.29236	-1582.96313	-879.56097	949.87976	-1362.53198	-1048.38049	973.45306	-1541.77588	-1030.4845	971.71387	-1373.88574	-1002.13177	637.73792	-1632.62463	-1038.04871	476.04807	-1612.57129	-1159.21472	246.42618	-1608.74988	-1227.75415	87.09811	-1567.31836	-1272.99646	81.77721	-1524.05322	-1092.45789	39.46695	-1563.75574	-860.25781	626.784	-1286.79236	-808.29797	512.46906	-1316.823	-776.7149	254.60374	-1316.07336	-720.63391	75.21619	-1355.62439	-744.46429	44.27446	-1406.56287	-561.99585	69.94661	-1343.1283	-993.94568	1682.96448	-1456.39783	NaN	NaN	NaN	NaN	NaN	NaN	NaN	NaN	NaN	NaN	NaN	NaN	NaN	NaN	NaN	NaN	NaN	NaN	NaN	NaN	NaN	NaN	NaN	NaN
24	0.23	-879.95874	1648.99048	-1512.5874	-884.10358	1632.63684	-1381.8855	-1011.66785	1590.66101	-1519.88599	-1014.53766	1580.40222	-1391.73816	-1012.55023	1433.63672	-1465.39709	-1050.89685	1105.20605	-1462.54382	-901.84119	1355.13477	-1465.86633	-865.09741	1179.01343	-1479.53503	-1087.14075	1262.73193	-1394.76868	-960.84937	1392.48694	-1625.2915	-916.13892	1204.75269	-1713.83423	-875.91711	1101.40466	-1738.28699	-764.25305	1000.68994	-1753.72388	-652.16644	952.41541	-1697.19507	-686.36823	910.73914	-1743.09436	-600.2132	884.04602	-1736.33411	-948.66278	1383.70398	-1303.71716	-1028.22229	1196.55005	-1222.94385	-1047.76147	1075.96521	-1212.35254	-1073.30798	958.61334	-1192.28369	-1064.86682	805.14655	-1215.76648	-1117.12976	827.35626	-1179.76379	-1111.11536	742.86267	-1174.48376	-882.60913	942.37946	-1582.13	-868.32886	949.26434	-1362.21008	-1037.26733	972.63062	-1540.57056	-1018.90778	971.44849	-1372.82373	-992.83557	637.15106	-1631.75684	-1029.81458	475.6947	-1611.97278	-1154.91296	248.12967	-1608.8479	-1226.35181	89.89132	-1568.01306	-1271.82776	85.37682	-1524.87646	-1092.2113	39.47022	-1563.88257	-848.52026	626.18152	-1286.10779	-798.47742	511.40988	-1316.94055	-764.8576	253.71477	-1316.06067	-708.97107	74.59743	-1355.70313	-733.05591	43.83874	-1406.56616	-550.32367	69.7923	-1344.32312	-983.28821	1682.28625	-1455.51135	NaN	NaN	NaN	NaN	NaN	NaN	NaN	NaN	NaN	NaN	NaN	NaN	NaN	NaN	NaN	NaN	NaN	NaN	NaN	NaN	NaN	NaN	NaN	NaN
25	0.24	-869.21167	1648.54846	-1511.74011	-873.26526	1632.14026	-1381.03149	-1000.87854	1590.02783	-1518.901	-1003.59894	1579.76294	-1390.81616	-1001.55347	1433.05603	-1464.5614	-1039.46094	1104.60046	-1461.67041	-890.81329	1354.6366	-1464.97961	-853.86993	1178.54236	-1478.71802	-1075.87158	1262.13049	-1393.90613	-949.7619	1391.78711	-1624.422	-905.8457	1203.70178	-1712.62646	-866.18439	1100.03333	-1736.69568	-753.70331	1000.48712	-1751.83167	-640.83289	954.43744	-1695.151	-674.53619	911.78503	-1740.3219	-588.00104	886.47333	-1733.7688	-937.55029	1383.21875	-1302.83972	-1017.05756	1196.04504	-1222.01843	-1036.64209	1075.55615	-1211.32629	-1062.29004	958.23822	-1191.16577	-1054.14575	804.79095	-1214.48181	-1106.33459	827.117	-1178.57788	-1100.4187	742.63721	-1173.04358	-871.47754	941.62006	-1581.17578	-856.02429	949.0946	-1360.86011	-1025.89685	971.91589	-1539.21313	-1007.00598	971.2666	-1371.61597	-983.20276	636.66461	-1630.85425	-1021.15582	475.34515	-1611.23083	-1150.20569	249.96411	-1608.82361	-1224.72839	93.00793	-1568.66541	-1270.31799	89.36087	-1525.68274	-1091.86047	39.48571	-1563.98718	-837.22137	625.45197	-1285.67542	-788.20361	510.51709	-1316.62134	-754.10168	252.89212	-1316.06433	-699.16095	73.49416	-1356.0304	-723.57672	43.26811	-1406.67944	-540.43445	68.67382	-1345.31274	-972.51965	1681.70532	-1454.5437	NaN	NaN	NaN	NaN	NaN	NaN	NaN	NaN	NaN	NaN	NaN	NaN	NaN	NaN	NaN	NaN	NaN	NaN	NaN	NaN	NaN	NaN	NaN	NaN
26	0.25	-858.38556	1648.14172	-1510.77026	-862.36255	1631.72742	-1380.08716	-990.07257	1589.56702	-1517.85046	-992.67285	1579.27954	-1389.7356	-990.6098	1432.46216	-1463.57898	-1027.87927	1104.06824	-1460.59033	-879.57605	1354.23621	-1463.99927	-842.5675	1178.26123	-1477.69287	-1064.48572	1261.56897	-1392.90015	-938.71057	1391.17346	-1623.44409	-895.57318	1202.73901	-1711.28589	-856.61554	1098.76965	-1735.0564	-743.45215	1000.05603	-1749.58313	-630.02942	955.98138	-1693.00464	-663.25867	912.49939	-1737.76709	-576.73706	888.47192	-1731.43738	-926.34698	1382.87097	-1301.84387	-1005.75574	1195.7865	-1220.93335	-1025.146	1075.20007	-1210.22192	-1050.72595	957.89594	-1190.04456	-1042.72241	804.22412	-1213.28955	-1094.93445	826.80798	-1177.28552	-1089.09583	742.39264	-1171.60522	-860.08771	941.01392	-1580.15308	-844.42023	948.8042	-1360.07727	-1014.24524	971.4411	-1537.79822	-994.87433	971.29614	-1370.25562	-973.18896	636.16321	-1629.82825	-1011.9444	475.00299	-1610.39954	-1145.12122	252.02072	-1608.76294	-1222.80676	96.47081	-1569.20715	-1268.56543	93.85015	-1526.40845	-1091.33215	39.54426	-1564.01196	-826.58453	624.82959	-1285.30554	-777.91595	510.08167	-1316.29114	-744.31055	251.86868	-1316.30493	-691.24139	71.98819	-1356.49243	-716.36646	42.61298	-1407.02966	-532.73505	66.61903	-1346.30737	-961.74603	1681.24133	-1453.5553	NaN	NaN	NaN	NaN	NaN	NaN	NaN	NaN	NaN	NaN	NaN	NaN	NaN	NaN	NaN	NaN	NaN	NaN	NaN	NaN	NaN	NaN	NaN	NaN
27	0.26	-847.61438	1647.90735	-1509.82666	-851.38049	1631.46973	-1379.12463	-979.24774	1589.26294	-1516.771	-981.68512	1578.93213	-1388.62073	-979.7605	1431.99719	-1462.51514	-1016.06183	1103.59766	-1459.41272	-868.39685	1354.03784	-1462.87915	-831.10138	1178.14612	-1476.51672	-1053.0824	1261.00842	-1391.75293	-927.69049	1390.58337	-1622.28857	-885.30933	1201.82874	-1709.81262	-847.24072	1097.51941	-1733.29382	-733.68628	999.61365	-1747.74048	-619.65509	957.08783	-1690.72351	-652.52045	912.86279	-1734.84497	-565.8056	889.93457	-1728.79285	-915.17365	1382.75867	-1300.77942	-994.20105	1195.58374	-1219.7417	-1013.43896	1074.95776	-1209.03479	-1038.8457	957.60931	-1188.85889	-1030.77539	804.15015	-1212.13159	-1082.83191	826.5174	-1176.04932	-1076.85547	742.04242	-1170.40222	-848.36847	940.59631	-1578.99988	-831.78363	948.81323	-1358.65918	-1002.33386	971.10681	-1536.24121	-982.72406	971.55005	-1368.59973	-962.75702	635.84863	-1628.703	-1002.16888	474.76254	-1609.45215	-1139.65735	254.37401	-1608.61133	-1220.57483	100.35966	-1569.80371	-1266.41455	98.78012	-1527.07593	-1090.86426	39.57958	-1564.06238	-815.90845	624.46027	-1285.16846	-767.63184	510.30908	-1316.60364	-735.65442	250.74312	-1316.51953	-685.38678	70.70495	-1356.72717	-712.53235	43.42766	-1407.13708	-527.56628	61.08238	-1347.67004	-950.91388	1680.94629	-1452.47498	NaN	NaN	NaN	NaN	NaN	NaN	NaN	NaN	NaN	NaN	NaN	NaN	NaN	NaN	NaN	NaN	NaN	NaN	NaN	NaN	NaN	NaN	NaN	NaN
28	0.27	-836.74072	1648.04431	-1508.81628	-840.39575	1631.58386	-1378.02039	-968.38971	1589.2168	-1515.59253	-970.65759	1578.85156	-1387.44177	-968.89972	1431.85645	-1461.33496	-1003.99475	1103.26099	-1458.14771	-857.18408	1354.21057	-1461.78162	-820.81793	1178.22388	-1475.06348	-1041.63477	1260.47546	-1390.42664	-916.67328	1390.20459	-1621.11072	-875.12177	1201.06714	-1708.24756	-838.09155	1096.35913	-1731.55701	-724.29388	998.98511	-1745.67297	-609.89972	957.86407	-1688.45898	-642.39844	913.01697	-1732.3606	-555.52979	890.86591	-1726.06128	-903.98767	1382.90735	-1299.64014	-982.52039	1195.49878	-1218.38721	-1001.4079	1074.82825	-1207.75024	-1026.51025	957.40863	-1187.63574	-1018.11896	803.9079	-1211.12329	-1070.16528	826.26532	-1174.76709	-1064.09778	741.90045	-1169.14404	-836.18738	940.3197	-1577.72559	-819.55762	949.10535	-1357.44568	-990.28564	971.00006	-1534.7616	-970.58063	972.12506	-1366.77881	-951.83984	635.50183	-1627.31689	-991.80939	474.5683	-1608.16064	-1133.62244	256.94641	-1608.36096	-1217.89404	104.66043	-1570.47778	-1263.92065	104.36308	-1527.96301	-1090.15479	39.34645	-1563.82568	-805.21826	624.86365	-1285.2865	-756.80646	511.56396	-1316.92053	-727.70953	250.36009	-1316.39258	-682.76917	70.09682	-1356.39697	-711.77435	44.37991	-1406.86987	-525.18024	52.02346	-1350.25842	-940.05817	1680.90796	-1451.33228	NaN	NaN	NaN	NaN	NaN	NaN	NaN	NaN	NaN	NaN	NaN	NaN	NaN	NaN	NaN	NaN	NaN	NaN	NaN	NaN	NaN	NaN	NaN	NaN
29	0.28	-825.95905	1648.73242	-1507.74634	-829.46991	1632.24976	-1376.92542	-957.47192	1589.62976	-1514.36975	-959.62488	1579.26257	-1386.25793	-957.92468	1432.30481	-1460.03931	-991.88074	1103.28748	-1457.13672	-845.83734	1354.64282	-1460.3562	-809.48065	1178.82019	-1473.65857	-1030.29834	1260.17969	-1388.96069	-905.64093	1390.20557	-1619.99939	-864.93005	1200.37988	-1706.62549	-829.17529	1095.17688	-1729.66504	-715.20844	998.12872	-1743.32715	-600.67792	958.20264	-1686.22083	-632.8385	912.81683	-1729.8075	-545.88568	891.31854	-1723.35303	-892.76038	1383.34485	-1298.34851	-970.6106	1195.60168	-1216.90149	-989.11932	1074.80823	-1206.33948	-1013.74091	957.25616	-1186.28271	-1004.81641	803.75714	-1210.11987	-1056.87292	825.9635	-1173.59399	-1050.44336	741.60797	-1168.05432	-824.13586	940.41394	-1576.43494	-807.29846	949.79218	-1356.06885	-978.07965	971.15198	-1533.50342	-958.55762	973.33643	-1365.17871	-940.23663	635.28558	-1625.65894	-980.62189	474.50635	-1606.52502	-1126.89355	259.93967	-1607.92944	-1214.646	109.63431	-1571.19421	-1260.75061	110.70204	-1528.8728	-1089.78796	39.73094	-1563.99841	-793.80298	626.22052	-1285.58887	-745.3233	513.9223	-1317.0614	-720.23999	251.0309	-1315.05298	-681.85406	69.75253	-1356.05225	-711.79443	44.64058	-1405.93823	-524.16754	46.8871	-1353.09058	-929.2442	1681.32751	-1450.11267	NaN	NaN	NaN	NaN	NaN	NaN	NaN	NaN	NaN	NaN	NaN	NaN	NaN	NaN	NaN	NaN	NaN	NaN	NaN	NaN	NaN	NaN	NaN	NaN
30	0.29	-815.10229	1649.97998	-1506.59363	-818.47729	1633.46143	-1375.77161	-946.57416	1590.62158	-1513.11389	-948.56134	1580.2467	-1384.99365	-946.91364	1433.37329	-1458.84338	-979.90228	1103.80176	-1456.26819	-834.6897	1355.76563	-1459.02625	-798.03815	1179.91357	-1472.23279	-1019.01617	1260.38733	-1387.40417	-894.47894	1390.69568	-1619.03687	-854.8421	1199.94739	-1704.87805	-820.55914	1094.21191	-1727.86108	-706.2713	996.90015	-1740.71545	-592.02899	958.16028	-1684.03748	-624.12512	912.45496	-1727.35168	-536.96545	891.32458	-1720.76758	-881.54907	1384.17212	-1296.94788	-958.40582	1195.92188	-1215.37683	-976.49561	1074.98889	-1204.86304	-1000.55377	957.2876	-1185.01331	-991.08929	803.95959	-1209.24219	-1042.92896	825.79889	-1172.35999	-1036.02332	741.40387	-1167.1272	-811.91504	940.84857	-1574.91565	-794.98901	951.05817	-1354.48621	-965.81317	971.83722	-1532.63904	-946.87	975.3714	-1364.06006	-927.99133	635.26019	-1623.82202	-968.36102	474.57541	-1604.58911	-1119.44946	263.60263	-1607.21375	-1210.87109	115.40752	-1571.60364	-1256.82617	117.98224	-1529.44458	-1089.14929	39.93716	-1563.94336	-781.41821	629.13892	-1286.00781	-733.26526	516.93195	-1317.24304	-713.52509	252.65228	-1313.60522	-679.65363	70.27123	-1355.70056	-710.64081	45.50057	-1405.07556	-522.38715	46.03624	-1353.11621	-918.46472	1682.42749	-1448.89209	NaN	NaN	NaN	NaN	NaN	NaN	NaN	NaN	NaN	NaN	NaN	NaN	NaN	NaN	NaN	NaN	NaN	NaN	NaN	NaN	NaN	NaN	NaN	NaN
